HIERARCHY
ROOT hip
{
  OFFSET 0 0 0
  CHANNELS 6 Xposition Yposition Zposition Zrotation Yrotation Xrotation
  JOINT abdomen
  {
    OFFSET 0 20.6881 -0.73152
    CHANNELS 3 Zrotation Xrotation Yrotation
    JOINT chest
    {
      OFFSET 0 11.7043 -0.48768
      CHANNELS 3 Zrotation Xrotation Yrotation
      JOINT neck
      {
        OFFSET 0 22.1894 -2.19456
        CHANNELS 3 Zrotation Xrotation Yrotation
        JOINT head
        {
          OFFSET -0.24384 7.07133 1.2192
          CHANNELS 3 Zrotation Xrotation Yrotation
          JOINT leftEye
          {
            OFFSET 4.14528 8.04674 8.04672
            CHANNELS 3 Zrotation Xrotation Yrotation
            End Site
            {
              OFFSET 1 0 0
            }
          }
          JOINT rightEye
          {
            OFFSET -3.6576 8.04674 8.04672
            CHANNELS 3 Zrotation Xrotation Yrotation
            End Site
            {
              OFFSET 1 0 0
            }
          }
        }
      }
      JOINT rCollar
      {
        OFFSET -2.68224 19.2634 -4.8768
        CHANNELS 3 Zrotation Xrotation Yrotation
        JOINT rShldr
        {
          OFFSET -8.77824 -1.95073 1.46304
          CHANNELS 3 Zrotation Xrotation Yrotation
          JOINT rForeArm
          {
            OFFSET -28.1742 -1.7115 0.48768
            CHANNELS 3 Zrotation Xrotation Yrotation
            JOINT rHand
            {
              OFFSET -22.5879 0.773209 7.07136
              CHANNELS 3 Zrotation Xrotation Yrotation
              JOINT rThumb1
              {
                OFFSET -1.2192 -0.487915 3.41376
                CHANNELS 3 Zrotation Xrotation Yrotation
                JOINT rThumb2
                {
                  OFFSET -3.37035 -0.52449 3.41376
                  CHANNELS 3 Zrotation Xrotation Yrotation
                  End Site
                  {
                    OFFSET -1.78271 -1.18214 1.43049
                  }
                }
              }
              JOINT rIndex1
              {
                OFFSET -7.75947 0.938293 5.60832
                CHANNELS 3 Zrotation Xrotation Yrotation
                JOINT rIndex2
                {
                  OFFSET -2.54057 -0.884171 1.56538
                  CHANNELS 3 Zrotation Xrotation Yrotation
                  End Site
                  {
                    OFFSET -1.62519 -0.234802 1.16502
                  }
                }
              }
              JOINT rMid1
              {
                OFFSET -8.24714 1.18213 3.41376
                CHANNELS 3 Zrotation Xrotation Yrotation
                JOINT rMid2
                {
                  OFFSET -3.10165 -0.590103 1.0647
                  CHANNELS 3 Zrotation Xrotation Yrotation
                  End Site
                  {
                    OFFSET -2.48547 -0.328903 0.83742
                  }
                }
              }
              JOINT rRing1
              {
                OFFSET -8.82822 0.546677 1.51678
                CHANNELS 3 Zrotation Xrotation Yrotation
                JOINT rRing2
                {
                  OFFSET -2.60934 -0.819778 -0.0198488
                  CHANNELS 3 Zrotation Xrotation Yrotation
                  End Site
                  {
                    OFFSET -2.33842 -0.294052 0.168128
                  }
                }
              }
              JOINT rPinky1
              {
                OFFSET -8.27202 -0.0477905 -0.4584
                CHANNELS 3 Zrotation Xrotation Yrotation
                JOINT rPinky2
                {
                  OFFSET -1.82734 -0.647385 -0.700984
                  CHANNELS 3 Zrotation Xrotation Yrotation
                  End Site
                  {
                    OFFSET -1.69225 -0.51767 -0.607171
                  }
                }
              }
            }
          }
        }
      }
      JOINT lCollar
      {
        OFFSET 2.68224 19.2634 -4.8768
        CHANNELS 3 Zrotation Xrotation Yrotation
        JOINT lShldr
        {
          OFFSET 8.77824 -1.95073 1.46304
          CHANNELS 3 Zrotation Xrotation Yrotation
          JOINT lForeArm
          {
            OFFSET 28.1742 -1.7115 0.48768
            CHANNELS 3 Zrotation Xrotation Yrotation
            JOINT lHand
            {
              OFFSET 22.5879 0.773209 7.07136
              CHANNELS 3 Zrotation Xrotation Yrotation
              JOINT lThumb1
              {
                OFFSET 1.2192 -0.487915 3.41376
                CHANNELS 3 Zrotation Xrotation Yrotation
                JOINT lThumb2
                {
                  OFFSET 3.37035 -0.52449 3.41376
                  CHANNELS 3 Zrotation Xrotation Yrotation
                  End Site
                  {
                    OFFSET 1.78271 -1.18214 1.43049
                  }
                }
              }
              JOINT lIndex1
              {
                OFFSET 7.75947 0.938293 5.60832
                CHANNELS 3 Zrotation Xrotation Yrotation
                JOINT lIndex2
                {
                  OFFSET 2.54057 -0.884171 1.56538
                  CHANNELS 3 Zrotation Xrotation Yrotation
                  End Site
                  {
                    OFFSET 1.62519 -0.234802 1.16502
                  }
                }
              }
              JOINT lMid1
              {
                OFFSET 8.24714 1.18213 3.41376
                CHANNELS 3 Zrotation Xrotation Yrotation
                JOINT lMid2
                {
                  OFFSET 3.10165 -0.590103 1.0647
                  CHANNELS 3 Zrotation Xrotation Yrotation
                  End Site
                  {
                    OFFSET 2.48547 -0.328903 0.83742
                  }
                }
              }
              JOINT lRing1
              {
                OFFSET 8.82822 0.546677 1.51678
                CHANNELS 3 Zrotation Xrotation Yrotation
                JOINT lRing2
                {
                  OFFSET 2.60934 -0.819778 -0.0198488
                  CHANNELS 3 Zrotation Xrotation Yrotation
                  End Site
                  {
                    OFFSET 2.33842 -0.294052 0.168128
                  }
                }
              }
              JOINT lPinky1
              {
                OFFSET 8.27202 -0.0477905 -0.4584
                CHANNELS 3 Zrotation Xrotation Yrotation
                JOINT lPinky2
                {
                  OFFSET 1.82734 -0.647385 -0.700984
                  CHANNELS 3 Zrotation Xrotation Yrotation
                  End Site
                  {
                    OFFSET 1.69225 -0.51767 -0.607171
                  }
                }
              }
            }
          }
        }
      }
    }
  }
  JOINT rButtock
  {
    OFFSET -8.77824 4.35084 1.2192
    CHANNELS 3 Zrotation Xrotation Yrotation
    JOINT rThigh
    {
      OFFSET 0 -1.70687 -2.19456
      CHANNELS 3 Zrotation Xrotation Yrotation
      JOINT rShin
      {
        OFFSET 0 -36.8199 0.73152
        CHANNELS 3 Zrotation Xrotation Yrotation
        JOINT rFoot
        {
          OFFSET 0.73152 -45.1104 -5.12064
          CHANNELS 3 Zrotation Xrotation Yrotation
          End Site
          {
            OFFSET -1.1221 -3.69964 12.103
          }
        }
      }
    }
  }
  JOINT lButtock
  {
    OFFSET 8.77824 4.35084 1.2192
    CHANNELS 3 Zrotation Xrotation Yrotation
    JOINT lThigh
    {
      OFFSET 0 -1.70687 -2.19456
      CHANNELS 3 Zrotation Xrotation Yrotation
      JOINT lShin
      {
        OFFSET 0 -36.8199 0.73152
        CHANNELS 3 Zrotation Xrotation Yrotation
        JOINT lFoot
        {
          OFFSET -0.73152 -45.1104 -5.12064
          CHANNELS 3 Zrotation Xrotation Yrotation
          End Site
          {
            OFFSET 1.1221 -3.69964 12.103
          }
        }
      }
    }
  }
}
MOTION
Frames:	6
Frame Time:	0.00833333
9.29425 91.2152 26.6488 -181.992 -0.3615 -162.733 -4.93686 -3.41423 10.9937 -0.529183 1.43882 3.0892 -2.93744 -18.3887 -2.47326 10.8615 32.8448 -10.6414 -0.0 0.0 0.0 -0.0 0.0 0.0 -2.22248e-13 5.51627e-13 9.17205e-15 70.7952 47.0785 7.76166 -28.4333 -36.0074 77.012 -0.0800601 8.0447 1.13818 -3.32488e-09 -1.98515e-08 3.83107e-09 -5.72263e-09 -3.43518e-08 6.64267e-09 -3.32488e-09 -1.98515e-08 3.83105e-09 7.73091 5.47488 0.417314 -3.32489e-09 -1.98514e-08 3.83106e-09 2.90554 0.965183 0.102902 -3.32488e-09 -1.98514e-08 3.83106e-09 10.2786 0.731801 0.0259123 -3.32489e-09 -1.98515e-08 3.83107e-09 2.22167 -0.733487 -0.20892 -2.22292e-13 5.51628e-13 8.8863e-15 -94.0931 53.6301 46.5437 28.4306 -36.0977 -77.171 0.334054 16.223 -2.34359 1.14272e-09 -1.46288e-09 -1.37974e-09 1.96073e-09 -2.564e-09 -2.39778e-09 1.14272e-09 -1.46288e-09 -1.37973e-09 -7.73091 5.47488 -0.417314 1.14272e-09 -1.4629e-09 -1.37974e-09 -2.90554 0.965183 -0.102902 1.14271e-09 -1.46288e-09 -1.37974e-09 -10.2786 0.731801 -0.0259123 1.14273e-09 -1.46288e-09 -1.37974e-09 -2.22167 -0.733487 0.20892 -2.03217e-16 0.0 -3.88251e-19 3.62359 -6.57042 3.26228 -0.0386843 23.2455 0.38917 5.68222 31.3484 -13.2663 2.03217e-16 0.0 3.88251e-19 -5.27377 -43.4731 -11.6905 0.248392 32.6017 -0.372557 -1.23306 13.6228 11.7211
9.20455 91.2604 24.9875 -181.985 -0.4577 -162.767 -5.11417 -3.66778 11.181 -0.592721 1.54688 3.14922 -3.16696 -18.3413 -2.61156 11.1011 32.8524 -10.866 -0.0 0.0 0.0 -0.0 0.0 0.0 -1.74322e-13 2.85035e-13 1.77831e-14 70.6796 47.5975 7.61629 -28.4224 -36.4945 77.832 -0.0794225 8.0134 1.13369 -4.67495e-10 -2.77049e-09 2.89486e-10 -8.0601e-10 -4.79854e-09 5.02077e-10 -4.67489e-10 -2.77048e-09 2.89473e-10 7.73091 5.47488 0.417314 -4.67499e-10 -2.77047e-09 2.8948e-10 2.90554 0.965183 0.102902 -4.67487e-10 -2.77048e-09 2.89482e-10 10.2786 0.731801 0.0259123 -4.67499e-10 -2.77049e-09 2.89492e-10 2.22167 -0.733487 -0.20892 -1.7427e-13 2.8503e-13 1.7613e-14 -94.449 53.8173 47.2313 28.4211 -36.5265 -77.8882 0.328907 16.1018 -2.32511 2.95642e-10 1.63977e-10 -2.28637e-11 5.09476e-10 2.78635e-10 -4.07075e-11 2.95636e-10 1.63972e-10 -2.28522e-11 -7.73091 5.47488 -0.417314 2.95639e-10 1.63966e-10 -2.28531e-11 -2.90554 0.965183 -0.102902 2.95634e-10 1.63972e-10 -2.28575e-11 -10.2786 0.731801 -0.0259123 2.95649e-10 1.63975e-10 -2.28583e-11 -2.22167 -0.733487 0.20892 -2.03217e-16 0.0 -3.88251e-19 3.37619 -5.68836 2.96177 -0.0522931 22.7343 0.320378 6.27576 33.0266 -13.777 2.03217e-16 0.0 3.88251e-19 -5.60792 -43.0313 -12.4486 0.227187 30.8799 -0.318728 -1.18963 13.5326 11.3717
9.1233 91.2035 23.314 -181.902 -0.5528 -162.862 -5.19982 -3.85565 11.363 -0.646662 1.64047 3.20615 -3.3798 -18.2769 -2.73466 11.3025 32.8545 -11.0615 -0.0 0.0 0.0 -0.0 0.0 0.0 -1.05013e-13 5.04727e-18 9.59136e-15 70.6446 48.0833 7.38356 -28.4028 -36.9605 78.6285 -0.078549 7.97016 1.12749 1.88449e-09 1.06841e-08 -2.56e-09 3.24152e-09 1.84768e-08 -4.43832e-09 1.8845e-09 1.06841e-08 -2.56002e-09 7.73091 5.47488 0.417314 1.88448e-09 1.06841e-08 -2.56001e-09 2.90554 0.965183 0.102902 1.8845e-09 1.06841e-08 -2.56001e-09 10.2786 0.731801 0.0259123 1.88448e-09 1.06841e-08 -2.56e-09 2.22167 -0.733487 -0.20892 -1.04911e-13 -4.65902e-18 9.49197e-15 -94.786 54.0271 47.8066 28.4042 -36.9281 -78.5737 0.324529 15.9974 -2.30922 -4.96536e-10 1.47157e-09 1.11108e-09 -8.49066e-10 2.5675e-09 1.9299e-09 -4.96542e-10 1.47157e-09 1.11109e-09 -7.73091 5.47488 -0.417314 -4.96536e-10 1.47156e-09 1.11109e-09 -2.90554 0.965183 -0.102902 -4.96545e-10 1.47156e-09 1.11108e-09 -10.2786 0.731801 -0.0259123 -4.96527e-10 1.47157e-09 1.11108e-09 -2.22167 -0.733487 0.20892 -2.03217e-16 0.0 -3.88251e-19 3.20926 -4.93449 2.67987 -0.0683398 22.592 0.265744 6.84124 34.3789 -14.3457 2.03217e-16 0.0 3.88251e-19 -5.84376 -42.6467 -12.9762 0.21458 29.6536 -0.277647 -1.15437 13.5406 10.9782
9.05173 91.0379 21.6305 -181.753 -0.6468 -163.021 -5.1482 -3.9717 11.554 -0.69228 1.71445 3.26374 -3.58431 -18.1812 -2.8435 11.4709 32.86 -11.2339 -0.0 0.0 0.0 -0.0 0.0 0.0 1.24165e-14 -3.68826e-13 -2.97932e-14 70.6922 48.5381 7.05393 -28.3774 -37.4198 79.4098 -0.0774089 7.91262 1.11924 3.76355e-09 2.01668e-08 -4.71606e-09 6.47618e-09 3.48725e-08 -8.17586e-09 3.76356e-09 2.01668e-08 -4.71607e-09 7.73091 5.47488 0.417314 3.76355e-09 2.01668e-08 -4.71607e-09 2.90554 0.965183 0.102902 3.76356e-09 2.01668e-08 -4.71607e-09 10.2786 0.731801 0.0259123 3.76355e-09 2.01668e-08 -4.71606e-09 2.22167 -0.733487 -0.20892 1.24969e-14 -3.68839e-13 -2.98884e-14 -95.1269 54.2781 48.2862 28.383 -37.3126 -79.2314 0.319817 15.8836 -2.29192 -1.33089e-09 2.47479e-09 2.07066e-09 -2.28235e-09 4.33189e-09 3.59909e-09 -1.3309e-09 2.47478e-09 2.07068e-09 -7.73091 5.47488 -0.417314 -1.33089e-09 2.47479e-09 2.07068e-09 -2.90554 0.965183 -0.102902 -1.3309e-09 2.47478e-09 2.07067e-09 -10.2786 0.731801 -0.0259123 -1.33088e-09 2.47479e-09 2.07067e-09 -2.22167 -0.733487 0.20892 -2.03217e-16 0.0 -3.88251e-19 3.15883 -4.29801 2.42544 -0.085125 22.8317 0.225469 7.39032 35.3937 -15.0032 2.03217e-16 0.0 3.88251e-19 -5.95476 -42.3449 -13.2577 0.208488 28.9766 -0.248921 -1.13352 13.7572 10.4718
8.98157 90.763 19.9429 -181.584 -0.7343 -163.232 -4.97105 -4.02304 11.7458 -0.73023 1.77571 3.32177 -3.78117 -18.0673 -2.93953 11.5969 32.8709 -11.3791 -0.0 0.0 0.0 -0.0 0.0 0.0 1.72365e-13 -8.34192e-13 -9.11769e-14 70.8099 48.9643 6.63903 -28.3458 -37.8761 80.1825 -0.0761738 7.8495 1.1102 5.63093e-09 2.87777e-08 -6.76891e-09 9.69134e-09 4.97548e-08 -1.1734e-08 5.63094e-09 2.87777e-08 -6.76893e-09 7.73091 5.47488 0.417314 5.63093e-09 2.87777e-08 -6.76892e-09 2.90554 0.965183 0.102902 5.63094e-09 2.87777e-08 -6.76892e-09 10.2786 0.731801 0.0259123 5.63093e-09 2.87777e-08 -6.76892e-09 2.22167 -0.733487 -0.20892 1.72382e-13 -8.34208e-13 -9.13043e-14 -95.4629 54.5711 48.6665 28.3592 -37.6837 -79.8594 0.314996 15.7658 -2.27404 -2.31057e-09 3.44427e-09 3.06811e-09 -3.96643e-09 6.04298e-09 5.33511e-09 -2.31057e-09 3.44427e-09 3.06812e-09 -7.73091 5.47488 -0.417314 -2.31057e-09 3.44428e-09 3.06812e-09 -2.90554 0.965183 -0.102902 -2.31058e-09 3.44427e-09 3.06811e-09 -10.2786 0.731801 -0.0259123 -2.31056e-09 3.44427e-09 3.06811e-09 -2.22167 -0.733487 0.20892 -2.03217e-16 0.0 -3.88251e-19 3.20914 -3.76476 2.17347 -0.101753 23.3994 0.194981 7.93112 36.1364 -15.7392 2.03217e-16 0.0 3.88251e-19 -5.95945 -42.1031 -13.3559 0.206807 28.7744 -0.228837 -1.12257 14.1461 9.91695
8.90759 90.3765 18.2542 -181.418 -0.8057 -163.492 -4.76486 -4.01869 11.9119 -0.75695 1.83066 3.37192 -3.95096 -17.9578 -3.01944 11.6756 32.8661 -11.4862 -0.0 0.0 0.0 -0.0 0.0 0.0 3.18878e-13 -1.23948e-12 -1.49077e-13 71.0122 49.3524 6.14368 -28.3074 -38.3018 80.9153 -0.0748148 7.77959 1.10019 7.0676e-09 3.49692e-08 -8.27891e-09 1.21655e-08 6.04531e-08 -1.43512e-08 7.06761e-09 3.49692e-08 -8.27893e-09 7.73091 5.47488 0.417314 7.06759e-09 3.49692e-08 -8.27891e-09 2.90554 0.965183 0.102902 7.06761e-09 3.49692e-08 -8.27892e-09 10.2786 0.731801 0.0259123 7.0676e-09 3.49692e-08 -8.27892e-09 2.22167 -0.733487 -0.20892 3.1882e-13 -1.23949e-12 -1.49248e-13 -95.7441 54.8725 48.9104 28.3322 -38.0238 -80.4403 0.312262 15.699 -2.2639 -3.13977e-09 4.14354e-09 3.83493e-09 -5.39248e-09 7.28144e-09 6.67045e-09 -3.13978e-09 4.14353e-09 3.83494e-09 -7.73091 5.47488 -0.417314 -3.13977e-09 4.14356e-09 3.83494e-09 -2.90554 0.965183 -0.102902 -3.13978e-09 4.14354e-09 3.83493e-09 -10.2786 0.731801 -0.0259123 -3.13977e-09 4.14354e-09 3.83493e-09 -2.22167 -0.733487 0.20892 -2.03217e-16 0.0 -3.88251e-19 3.28173 -3.37031 1.92072 -0.11914 24.3061 0.175874 8.39785 36.584 -16.4566 2.03217e-16 0.0 3.88251e-19 -5.92944 -41.8877 -13.2769 0.209294 28.9813 -0.217183 -1.10171 14.4866 9.41788
